<svg width="33" height="33" viewBox="0 0 33 33" fill="none" xmlns="http://www.w3.org/2000/svg">
  <defs>
    <linearGradient id="customGradient" x1="0%" y1="0%" x2="100%" y2="0%">
      <stop offset="0%" stop-color="hsla(177, 87%, 79%, 1)" />
      <stop offset="100%" stop-color="hsla(235, 89%, 70%, 1)" />
    </linearGradient>
  </defs>
  <path d="M14.7403 6.54163C15.0149 5.42915 16.5964 5.42915 16.8711 6.54163C18.0434 11.2903 21.7511 14.9979 26.4998 16.1702C27.6123 16.4448 27.6123 18.0264 26.4998 18.301C21.7511 19.4732 18.0434 23.1809 16.8711 27.9295C16.5964 29.042 15.0149 29.042 14.7403 27.9295C13.5679 23.1809 9.8602 19.4732 5.11154 18.301C3.99903 18.0264 3.99903 16.4448 5.11154 16.1702C9.8602 14.9979 13.5679 11.2903 14.7403 6.54163Z" fill="url(#customGradient)"/>
  <path d="M26.4536 1.82762C26.5647 1.37733 27.2049 1.37733 27.316 1.82762C27.7906 3.74969 29.2913 5.25041 31.2134 5.72489C31.6637 5.83605 31.6637 6.4762 31.2134 6.58736C29.2913 7.06184 27.7906 8.56256 27.316 10.4846C27.2049 10.9349 26.5647 10.9349 26.4536 10.4846C25.9791 8.56256 24.4783 7.06184 22.5562 6.58736C22.1059 6.4762 22.1059 5.83605 22.5562 5.72489C24.4783 5.25041 25.9791 3.74969 26.4536 1.82762Z" fill="url(#customGradient)"/>
</svg>
